<svg width="1920" height="980" viewBox="0 0 1920 980" fill="none" xmlns="http://www.w3.org/2000/svg">
<mask id="mask0_473_368" style="mask-type:alpha" maskUnits="userSpaceOnUse" x="0" y="0" width="1920" height="980">
<path d="M1920 980L59.9999 980C26.8628 980 -0.000119722 953.137 -0.000116825 920L-4.16414e-05 60C-3.87444e-05 26.863 26.8629 7.86373e-05 60 8.15342e-05L1860 0.000238895C1893.14 0.000241792 1920 26.8632 1920 60.0002L1920 980Z" fill="#F9F9F9"/>
</mask>
<g mask="url(#mask0_473_368)">
<path opacity="0.5" d="M1262.11 814.786L2155.63 -468.923L1681.23 -799.124L787.711 484.585L1262.11 814.786Z" fill="url(#paint0_linear_473_368)"/>
<path opacity="0.3" d="M-61.6987 288.408L1124 -897.292L715.294 -1306L-470.406 -120.3L-61.6987 288.408Z" fill="url(#paint1_linear_473_368)"/>
<path opacity="0.2" d="M1208.19 868.469L2075.67 -301.984L1611.31 -646.15L743.822 524.303L1208.19 868.469Z" fill="url(#paint2_linear_473_368)"/>
<path opacity="0.2" d="M1536.55 575.158L2174 -62.2922L2346.11 109.821L1708.66 747.271L1536.55 575.158Z" fill="url(#paint3_linear_473_368)"/>
<path opacity="0.15" d="M539.427 754.083L1569.6 -276.086L1463.68 -382L433.513 648.169L539.427 754.083Z" fill="url(#paint4_linear_473_368)"/>
<path opacity="0.15" d="M203.257 661.912L1233.43 -368.256L1051.26 -550.424L21.0896 479.745L203.257 661.912Z" fill="url(#paint5_linear_473_368)"/>
<path opacity="0.5" d="M1651.66 745.427L2364.67 -216.598L2187 -348.278L1473.99 613.747L1651.66 745.427Z" fill="url(#paint6_linear_473_368)"/>
<g opacity="0.5">
<path opacity="0.5" d="M111.24 1115.07L940.546 -3.86975L476.182 -348.036L-353.124 770.901L111.24 1115.07Z" fill="url(#paint7_linear_473_368)"/>
<path opacity="0.5" d="M-58.7662 1174.1L1407.17 -803.806L942.802 -1147.97L-523.13 829.93L-58.7662 1174.1Z" fill="url(#paint8_linear_473_368)"/>
</g>
<path opacity="0.5" d="M1137.46 -388.041L638.716 284.883L997.052 550.466L1495.79 -122.458L1137.46 -388.041Z" fill="url(#paint9_linear_473_368)"/>
<path opacity="0.2" d="M712.468 1137.86L1879.69 -437.01L1666.09 -595.321L498.867 979.545L712.468 1137.86Z" fill="url(#paint10_linear_473_368)"/>
<path opacity="0.4" d="M86.0036 545.926L-553.922 -94.0001L-365.922 -282L274.004 357.926L86.0036 545.926Z" fill="url(#paint11_linear_473_368)"/>
<path opacity="0.4" d="M1993.93 446.926L1354 -193L1542 -381L2181.93 258.926L1993.93 446.926Z" fill="url(#paint12_linear_473_368)"/>
<path opacity="0.2" d="M557.055 -315L-237.997 480.052L-49.9967 668.051L745.055 -127L557.055 -315Z" fill="url(#paint13_linear_473_368)"/>
<path opacity="0.5" d="M1302.05 595.277L1828.48 -115.01L1556.46 -316.619L1030.03 393.668L1302.05 595.277Z" fill="url(#paint14_linear_473_368)"/>
</g>
<defs>
<linearGradient id="paint0_linear_473_368" x1="1708.87" y1="172.931" x2="1234.47" y2="-157.269" gradientUnits="userSpaceOnUse">
<stop stop-color="white"/>
<stop offset="1" stop-color="white" stop-opacity="0"/>
</linearGradient>
<linearGradient id="paint1_linear_473_368" x1="389.753" y1="-145.209" x2="-174.801" y2="-108.939" gradientUnits="userSpaceOnUse">
<stop stop-color="#D5DCE5"/>
<stop offset="1" stop-color="#D5DCE5" stop-opacity="0"/>
</linearGradient>
<linearGradient id="paint2_linear_473_368" x1="1641.93" y1="283.242" x2="1229.22" y2="552.661" gradientUnits="userSpaceOnUse">
<stop stop-color="#D5DCE5"/>
<stop offset="1" stop-color="#D5DCE5" stop-opacity="0"/>
</linearGradient>
<linearGradient id="paint3_linear_473_368" x1="1855.28" y1="256.433" x2="1774.38" y2="530.404" gradientUnits="userSpaceOnUse">
<stop stop-color="#D5DCE5"/>
<stop offset="1" stop-color="#D5DCE5" stop-opacity="0"/>
</linearGradient>
<linearGradient id="paint4_linear_473_368" x1="1054.51" y1="238.998" x2="757.754" y2="186.598" gradientUnits="userSpaceOnUse">
<stop stop-color="#D5DCE5"/>
<stop offset="1" stop-color="#D5DCE5" stop-opacity="0"/>
</linearGradient>
<linearGradient id="paint5_linear_473_368" x1="718.341" y1="146.828" x2="315.797" y2="184.039" gradientUnits="userSpaceOnUse">
<stop stop-color="#D5DCE5"/>
<stop offset="1" stop-color="#D5DCE5" stop-opacity="0"/>
</linearGradient>
<linearGradient id="paint6_linear_473_368" x1="1783.56" y1="557.312" x2="1721.89" y2="395.874" gradientUnits="userSpaceOnUse">
<stop stop-color="white"/>
<stop offset="1" stop-color="white" stop-opacity="0"/>
</linearGradient>
<linearGradient id="paint7_linear_473_368" x1="640.71" y1="103.554" x2="130.094" y2="823.97" gradientUnits="userSpaceOnUse">
<stop stop-color="white"/>
<stop offset="1" stop-color="white" stop-opacity="0"/>
</linearGradient>
<linearGradient id="paint8_linear_473_368" x1="674.2" y1="185.145" x2="209.837" y2="-159.02" gradientUnits="userSpaceOnUse">
<stop stop-color="white"/>
<stop offset="1" stop-color="white" stop-opacity="0"/>
</linearGradient>
<linearGradient id="paint9_linear_473_368" x1="943.498" y1="-142.687" x2="1153.97" y2="60.4878" gradientUnits="userSpaceOnUse">
<stop stop-color="white"/>
<stop offset="1" stop-color="white" stop-opacity="0"/>
</linearGradient>
<linearGradient id="paint10_linear_473_368" x1="1394.69" y1="84.3713" x2="599.093" y2="354.604" gradientUnits="userSpaceOnUse">
<stop stop-color="#D5DCE5"/>
<stop offset="1" stop-color="#D5DCE5" stop-opacity="0"/>
</linearGradient>
<linearGradient id="paint11_linear_473_368" x1="-266.904" y1="81.0174" x2="132.534" y2="286.964" gradientUnits="userSpaceOnUse">
<stop stop-color="#D5DCE5"/>
<stop offset="1" stop-color="#D5DCE5" stop-opacity="0"/>
</linearGradient>
<linearGradient id="paint12_linear_473_368" x1="1641.02" y1="-17.9826" x2="2040.46" y2="187.964" gradientUnits="userSpaceOnUse">
<stop stop-color="#D5DCE5"/>
<stop offset="1" stop-color="#D5DCE5" stop-opacity="0"/>
</linearGradient>
<linearGradient id="paint13_linear_473_368" x1="182.003" y1="168" x2="14.6764" y2="324.418" gradientUnits="userSpaceOnUse">
<stop stop-color="white"/>
<stop offset="1" stop-color="#D5DCE5" stop-opacity="0"/>
</linearGradient>
<linearGradient id="paint14_linear_473_368" x1="1502.18" y1="138.548" x2="1542.36" y2="-49.669" gradientUnits="userSpaceOnUse">
<stop stop-color="white"/>
<stop offset="1" stop-color="white" stop-opacity="0"/>
</linearGradient>
</defs>
</svg>
